<?xml version="1.0" encoding="UTF-8" standalone="no"?>
<!-- Created with Inkscape (http://www.inkscape.org/) -->

<svg
   xmlns:dc="http://purl.org/dc/elements/1.1/"
   xmlns:cc="http://creativecommons.org/ns#"
   xmlns:rdf="http://www.w3.org/1999/02/22-rdf-syntax-ns#"
   xmlns:svg="http://www.w3.org/2000/svg"
   xmlns="http://www.w3.org/2000/svg"
   xmlns:sodipodi="http://sodipodi.sourceforge.net/DTD/sodipodi-0.dtd"
   xmlns:inkscape="http://www.inkscape.org/namespaces/inkscape"
   width="72"
   height="72"
   id="svg3137"
   version="1.1"
   inkscape:version="0.48.0 r9654"
   sodipodi:docname="drawing.svg">
  <defs
     id="defs3139" />
  <sodipodi:namedview
     id="base"
     pagecolor="#ffffff"
     bordercolor="#666666"
     borderopacity="1.0"
     inkscape:pageopacity="0.0"
     inkscape:pageshadow="2"
     inkscape:zoom="1"
     inkscape:cx="57.852716"
     inkscape:cy="15.75552"
     inkscape:current-layer="layer1"
     showgrid="true"
     inkscape:grid-bbox="true"
     inkscape:document-units="px"
     fit-margin-top="0"
     fit-margin-left="0"
     fit-margin-right="0"
     fit-margin-bottom="0"
     inkscape:window-width="1600"
     inkscape:window-height="823"
     inkscape:window-x="0"
     inkscape:window-y="25"
     inkscape:window-maximized="1" />
  <metadata
     id="metadata3142">
    <rdf:RDF>
      <cc:Work
         rdf:about="">
        <dc:format>image/svg+xml</dc:format>
        <dc:type
           rdf:resource="http://purl.org/dc/dcmitype/StillImage" />
        <dc:title></dc:title>
      </cc:Work>
    </rdf:RDF>
  </metadata>
  <g
     id="layer1"
     inkscape:label="Layer 1"
     inkscape:groupmode="layer"
     transform="translate(41.852715,43.816605)">
    <g
       id="g3"
       transform="matrix(0.13044084,0,0,0.15966756,-44.183041,-59.846122)">
      <path
         d="m 577.4,268.33 c 0,6.42 0,12.83 0,19.25 -0.28,5.77 -0.4,10.89 -1.79,15.55 -1.28,4.28 -3.551,8.12 -5.82,11.53 -7.1,10.65 -14.771,19.7 -23.17,28.87 -1.37,1.5 -3.09,2.77 -4.47,4.25 -6.931,7.41 -12.891,15.64 -18.131,25.18 -4.22,7.68 -7.359,15.59 -11.97,22.72 -4.56,7.04 -9.76,13.08 -15.45,19.24 -2.689,2.92 -5.8,5.7 -8.72,8.62 -2.87,2.87 -5.96,5.67 -8.96,8.39 -6.16,5.601 -12.49,10.83 -19.36,15.33 -6.93,4.55 -14.22,8.96 -21.59,13.101 -14.88,8.35 -29.72,16.319 -46.22,23.159 -32.69,13.561 -62.17,30.62 -95.01,43.761 -2.04,0.819 -4.18,1.62 -6.37,2.35 -2.32,0.76 -4.59,1.15 -7.17,1.45 -4.87,0.57 -9.79,1.68 -14.66,2.689 -19.41,3.99 -37.12,9.03 -56.28,13.091 -9.59,2.029 -19.71,3.39 -30.78,3.92 -10.94,0.52 -22.45,0.439 -34.24,0.439 -11.52,0 -23.13,-0.09 -34.13,-0.56 -11.44,-0.48 -20.6,-2.16 -28.76,-5.93 -3.95,-1.82 -7.77,-3.811 -11.41,-5.931 -3.7,-2.149 -7.36,-4.29 -10.52,-6.819 -6.15,-4.94 -11.68,-11.711 -16,-18.69 -2.3,-3.71 -4.53,-7.21 -6.05,-11.3 -1.51,-4.11 -1.96,-9.69 -1.67,-15.67 0.52,-11.17 1.44,-21.181 2.12,-32.57 1.34,-22.17 1.68,-45.08 1.68,-67.7 0,-11.68 0.35,-23.39 -0.22,-34.24 -0.62,-11.55 -2.3,-20.2 -6.27,-28.42 -3.8,-7.87 -7.96,-15.14 -11.64,-23.05 -3.39,-7.31 -6.26,-15.08 -6.49,-25.33 0,-0.96 0,-1.91 0,-2.87 0,-5.67 0,-11.34 0,-17.01 0.09,-0.03 0.13,-0.1 0.11,-0.23 -0.75,-20.38 6.7,-32.19 16.57,-41.85 2.55,-2.5 5.44,-4.32 8.16,-6.38 2.8,-2.11 5.3,-4.52 7.5,-7.16 4.59,-5.51 6.93,-12.4 8.17,-21.15 0.68,-4.76 0.3,-9.43 1.34,-13.2 1.01,-3.65 2.95,-6.57 5.15,-9.52 4.07,-5.45 9.31,-10.17 14.88,-14.43 10.87,-8.32 23.31,-15.85 36.93,-21.6 13.81,-5.83 29.39,-9.6 46.11,-12.42 16.46,-2.78 33.81,-5.39 51.36,-7.16 35.82,-3.61 74.61,-3.19 113.02,-4.03 19.511,0 39.021,0 58.53,0 15.73,0.22 30.37,0.1 44.76,0.78 7.23,0.34 14.24,1.01 19.69,3.14 5.14,2 9.979,5.26 14.22,8.5 8.59,6.58 16.82,13.79 23.38,22.16 6.55,8.34 12.3,17.7 17.8,27.64 5.58,10.1 9.91,20.69 15.891,29.65 6.09,9.13 13.53,16.18 21.71,23.73 7.68,7.08 15.32,14.92 22.149,23.38 3.181,3.94 6.771,8.8 8.96,13.77 2.351,5.34 2.991,12.21 3.131,19.58 z m -21.26,43.31 c 7.16,-11.46 15.811,-30.38 10.07,-49.02 -2.34,-7.59 -6.92,-13.94 -11.42,-19.91 -4.59,-6.11 -9.28,-11.74 -14.54,-16.79 -2.71,-2.6 -5.59,-5.25 -9.07,-6.6 -9.26,-3.61 -22.01,-4.5 -33.46,-5.71 -2.27,-0.24 -4.66,-0.12 -6.819,-1.01 6.72,-0.65 15.55,-0.54 22.71,-0.89 2.18,-0.11 6,-0.09 6.489,-1.46 0.57,-1.56 -2.689,-4.21 -3.689,-5.37 -1.49,-1.72 -2.62,-3.58 -3.69,-5.26 -7.029,-11.04 -12.439,-24.12 -18.58,-35.36 -4.26,-7.79 -8.71,-15.47 -13.76,-22.16 -5.18,-6.86 -11.08,-12.67 -17.57,-18.35 -3.02,-2.64 -6.42,-5.47 -10.18,-7.72 -3.82,-2.28 -7.7,-4.42 -12.42,-5.59 -9.96,-2.49 -21.54,-1.85 -33.58,-2.35 -11.42,-0.49 -23.479,0.34 -35.689,-0.23 -5.71,-0.26 -11.9,-0.11 -17.91,-0.11 -5.88,0 -12.95,-0.14 -18.351,0.11 -6.71,0.31 -13.54,-0.09 -20.37,0.23 -3.35,0.15 -6.8,0.11 -10.18,0.11 -16.79,0 -33.54,0.8 -49.91,1.56 -19.38,0.91 -38.99,2.19 -57.41,4.37 -5.96,0.71 -12.61,1.35 -17.34,3.24 -0.87,0.35 -1.73,0.45 -2.13,1.68 2.79,1.44 6.23,1.19 9.52,1.35 3.54,0.16 7.23,-0.12 10.74,-0.12 7.13,0 14.41,-0.41 21.04,-0.78 13.94,-0.78 27.72,-1.67 40.84,-2.8 6.46,-0.55 12.84,-1.58 19.36,-2.35 6.58,-0.77 13.24,-1.31 20.14,-1.68 13.65,-0.71 28.13,-0.9 41.63,0.9 12.739,1.69 23.979,4.78 34.909,8.62 10.811,3.78 20.99,8.04 30.33,13.31 13.94,7.87 27.41,16.33 40.061,25.4 3.14,2.25 6.38,4.59 9.18,7.17 0.811,0.74 2.271,1.59 2.01,3.02 -3.18,-0.7 -5.75,-2.7 -8.279,-4.37 -2.58,-1.7 -5.051,-3.49 -7.5,-5.26 -14.891,-10.79 -30.94,-19.41 -48.561,-27.64 -22.819,-10.65 -48.38,-20.01 -82.359,-18.57 -16.141,0.68 -31.43,2.32 -46.78,4.03 -15.16,1.68 -30.54,3.55 -47,3.8 -8.46,0.13 -16.82,0.15 -25.06,-0.11 -16.39,-0.52 -33.99,-1.21 -48.35,1.34 -7.2,1.28 -12.97,3.67 -19.13,6.27 -5.88,2.48 -11.5,5.33 -17.01,8.39 -5.41,3 -10.86,6 -15.89,9.51 -4.88,3.41 -10.01,7.01 -13.88,11.53 -3.82,4.45 -6.4,10.92 -6.71,18.69 -0.34,8.47 -2.07,15.11 -4.81,20.59 -4.16,8.29 -11.18,14.31 -17.91,20.14 -4.5,3.89 -8.91,8.31 -12.31,13.09 -1.85,2.6 -2.84,5.46 -3.69,9.07 -3.14,13.37 -3.34,33.3 1.01,45.32 6.73,18.62 19.66,31.52 20.92,55.28 0.43,8.04 0.34,16.45 0.34,25.06 0,33.98 0.5,67.6 -2.24,99.15 -0.69,7.93 -2.07,16.42 -1.23,23.72 0.4,3.53 1.53,6.82 3.02,9.63 4.52,8.51 9.9,15.38 16.56,21.59 4.37,4.08 9.73,7.141 15.44,9.96 5.8,2.87 11.63,5.41 18.13,7.28 6.5,1.86 13.91,2.82 22.38,3.02 17,0.41 33.47,0.061 49.24,-1.34 15.4,-1.38 29.49,-4.439 42.97,-7.84 13.27,-3.34 26.75,-6.87 40.62,-10.18 6.99,-1.66 14.06,-3.37 21.04,-4.36 6.97,-0.99 13.21,-3.729 19.25,-6.16 23.8,-9.55 46.06,-21.66 69.27,-32.34 11.92,-5.49 23.891,-10.01 35.13,-15.67 11.271,-5.66 22.221,-11.57 33.021,-17.79 10.64,-6.13 21.189,-12.61 30.1,-20.7 13.391,-12.17 26.94,-24 36.141,-40.06 3.079,-5.37 5.479,-11.21 8.51,-16.9 2.95,-5.55 6.069,-10.86 9.62,-15.78 2.689,-3.72 5.8,-7.05 8.729,-10.4 0.93,-1.07 2.4,-2.13 2.351,-3.81 -3.601,-0.19 -6.561,2.38 -10.41,1.57 0.7,-1.77 2.6,-2.76 4.14,-3.58 5.271,-2.82 11.07,-4.56 15.67,-7.84 5.876,-4.18 10.536,-10.37 14.546,-16.78 z"
         id="path5"
         inkscape:connector-curvature="0" />
      <path
         d="m 577.4,96 c 0,57.44 0,114.89 0,172.33 -0.141,-7.37 -0.78,-14.24 -3.131,-19.58 -2.189,-4.97 -5.779,-9.83 -8.96,-13.77 -6.829,-8.46 -14.47,-16.3 -22.149,-23.38 -8.18,-7.55 -15.62,-14.6 -21.71,-23.73 -5.98,-8.96 -10.311,-19.55 -15.891,-29.65 -5.5,-9.94 -11.25,-19.3 -17.8,-27.64 -6.56,-8.37 -14.79,-15.58 -23.38,-22.16 -4.24,-3.24 -9.08,-6.5 -14.22,-8.5 -5.45,-2.13 -12.46,-2.8 -19.69,-3.14 C 416.079,96.1 401.44,96.22 385.709,96 449.6,96 513.5,96 577.4,96 z"
         id="path7"
         inkscape:connector-curvature="0"
         style="fill:#ffffff" />
      <path
         d="m 577.4,287.58 c -0.15,87.62 0.3,176.32 -0.23,263.75 -186.34,0 -372.59,0 -558.95,0 -0.12,0 -0.23,0 -0.34,0 0,-92.1 0,-184.22 0,-276.32 0.23,10.25 3.1,18.02 6.49,25.33 3.68,7.91 7.84,15.18 11.64,23.05 3.97,8.22 5.65,16.87 6.27,28.42 0.57,10.85 0.22,22.56 0.22,34.24 0,22.62 -0.34,45.53 -1.68,67.7 -0.68,11.39 -1.6,21.4 -2.12,32.57 -0.29,5.979 0.16,11.56 1.67,15.67 1.52,4.09 3.75,7.59 6.05,11.3 4.32,6.979 9.85,13.75 16,18.69 3.16,2.529 6.82,4.67 10.52,6.819 3.64,2.12 7.46,4.11 11.41,5.931 8.16,3.77 17.32,5.449 28.76,5.93 11,0.47 22.61,0.56 34.13,0.56 11.79,0 23.3,0.08 34.24,-0.439 11.07,-0.53 21.19,-1.891 30.78,-3.92 19.16,-4.061 36.87,-9.101 56.28,-13.091 4.87,-1.01 9.79,-2.119 14.66,-2.689 2.58,-0.3 4.85,-0.69 7.17,-1.45 2.19,-0.729 4.33,-1.53 6.37,-2.35 32.84,-13.141 62.319,-30.2 95.01,-43.761 16.5,-6.84 31.34,-14.81 46.22,-23.159 7.37,-4.141 14.66,-8.551 21.59,-13.101 6.87,-4.5 13.2,-9.729 19.36,-15.33 3,-2.72 6.09,-5.52 8.96,-8.39 2.92,-2.92 6.03,-5.7 8.72,-8.62 5.69,-6.16 10.891,-12.2 15.45,-19.24 4.61,-7.13 7.75,-15.04 11.97,-22.72 5.24,-9.54 11.2,-17.77 18.131,-25.18 1.38,-1.48 3.1,-2.75 4.47,-4.25 8.399,-9.17 16.07,-18.22 23.17,-28.87 2.27,-3.41 4.54,-7.25 5.82,-11.53 1.389,-4.66 1.509,-9.78 1.789,-15.55 z"
         id="path9"
         inkscape:connector-curvature="0"
         style="fill:#ffffff" />
      <path
         d="m 566.21,262.62 c 5.74,18.64 -2.91,37.56 -10.07,49.02 -4.01,6.41 -8.67,12.6 -14.55,16.78 -4.6,3.28 -10.399,5.02 -15.67,7.84 -1.54,0.82 -3.439,1.81 -4.14,3.58 3.85,0.81 6.81,-1.76 10.41,-1.57 0.05,1.68 -1.421,2.74 -2.351,3.81 -2.93,3.35 -6.04,6.68 -8.729,10.4 -3.551,4.92 -6.67,10.23 -9.62,15.78 -3.03,5.69 -5.431,11.53 -8.51,16.9 -9.2,16.06 -22.75,27.89 -36.141,40.06 -8.91,8.09 -19.46,14.57 -30.1,20.7 -10.8,6.22 -21.75,12.13 -33.021,17.79 -11.239,5.66 -23.21,10.18 -35.13,15.67 -23.21,10.68 -45.47,22.79 -69.27,32.34 -6.041,2.431 -12.28,5.17 -19.25,6.16 -6.98,0.99 -14.05,2.7 -21.04,4.36 -13.87,3.31 -27.35,6.84 -40.62,10.18 -13.48,3.4 -27.57,6.46 -42.97,7.84 -15.77,1.4 -32.24,1.75 -49.24,1.34 -8.47,-0.199 -15.88,-1.159 -22.38,-3.02 -6.5,-1.87 -12.33,-4.41 -18.13,-7.28 -5.71,-2.819 -11.07,-5.88 -15.44,-9.96 -6.66,-6.21 -12.04,-13.08 -16.56,-21.59 -1.49,-2.81 -2.62,-6.1 -3.02,-9.63 -0.84,-7.3 0.54,-15.79 1.23,-23.72 2.74,-31.551 2.24,-65.17 2.24,-99.15 0,-8.61 0.09,-17.02 -0.34,-25.06 -1.26,-23.76 -14.19,-36.66 -20.92,-55.28 -4.35,-12.02 -4.15,-31.95 -1.01,-45.32 0.85,-3.61 1.84,-6.47 3.69,-9.07 3.4,-4.78 7.81,-9.2 12.31,-13.09 6.73,-5.83 13.75,-11.85 17.91,-20.14 2.74,-5.48 4.47,-12.12 4.81,-20.59 0.31,-7.77 2.89,-14.24 6.71,-18.69 3.87,-4.52 9,-8.12 13.88,-11.53 5.03,-3.51 10.48,-6.51 15.89,-9.51 5.51,-3.06 11.13,-5.91 17.01,-8.39 6.16,-2.6 11.93,-4.99 19.13,-6.27 14.36,-2.55 31.96,-1.86 48.35,-1.34 8.24,0.26 16.6,0.24 25.06,0.11 16.46,-0.25 31.84,-2.12 47,-3.8 15.35,-1.71 30.64,-3.35 46.78,-4.03 33.979,-1.44 59.54,7.92 82.359,18.57 17.62,8.23 33.67,16.85 48.561,27.64 2.449,1.77 4.92,3.56 7.5,5.26 2.529,1.67 5.1,3.67 8.279,4.37 0.261,-1.43 -1.199,-2.28 -2.01,-3.02 -2.8,-2.58 -6.04,-4.92 -9.18,-7.17 -12.65,-9.07 -26.12,-17.53 -40.061,-25.4 -9.34,-5.27 -19.52,-9.53 -30.33,-13.31 -10.93,-3.84 -22.17,-6.93 -34.909,-8.62 -13.5,-1.8 -27.98,-1.61 -41.63,-0.9 -6.9,0.37 -13.56,0.91 -20.14,1.68 -6.52,0.77 -12.9,1.8 -19.36,2.35 -13.12,1.13 -26.9,2.02 -40.84,2.8 -6.63,0.37 -13.91,0.78 -21.04,0.78 -3.51,0 -7.2,0.28 -10.74,0.12 -3.29,-0.16 -6.73,0.09 -9.52,-1.35 0.4,-1.23 1.26,-1.33 2.13,-1.68 4.73,-1.89 11.38,-2.53 17.34,-3.24 18.42,-2.18 38.03,-3.46 57.41,-4.37 16.37,-0.76 33.12,-1.56 49.91,-1.56 3.38,0 6.83,0.04 10.18,-0.11 6.83,-0.32 13.66,0.08 20.37,-0.23 5.4,-0.25 12.471,-0.11 18.351,-0.11 6.01,0 12.2,-0.15 17.91,0.11 12.21,0.57 24.27,-0.26 35.689,0.23 12.04,0.5 23.62,-0.14 33.58,2.35 4.72,1.17 8.6,3.31 12.42,5.59 3.76,2.25 7.16,5.08 10.18,7.72 6.49,5.68 12.391,11.49 17.57,18.35 5.05,6.69 9.5,14.37 13.76,22.16 6.141,11.24 11.551,24.32 18.58,35.36 1.07,1.68 2.2,3.54 3.69,5.26 1,1.16 4.26,3.81 3.689,5.37 -0.489,1.37 -4.31,1.35 -6.489,1.46 -7.16,0.35 -15.99,0.24 -22.71,0.89 2.159,0.89 4.55,0.77 6.819,1.01 11.45,1.21 24.2,2.1 33.46,5.71 3.48,1.35 6.36,4 9.07,6.6 5.26,5.05 9.95,10.68 14.54,16.79 4.504,5.97 9.084,12.32 11.424,19.91 z m -16.12,24.96 c 0.811,-8.41 0.811,-16.17 0.68,-25.18 -0.069,-4.43 -0.13,-8.61 -0.789,-12.2 -0.66,-3.58 -1.891,-6.66 -3.471,-9.51 -3.06,-5.53 -6.899,-10.24 -11.63,-14.43 -2.38,-2.11 -4.6,-4.06 -7.61,-5.38 -3.01,-1.31 -6.869,-1.72 -10.97,-2.12 -11.18,-1.11 -24.78,-0.94 -36.26,-0.34 0.67,0.61 1.72,0.57 2.58,0.67 11.2,1.3 22.92,1.74 33.68,3.25 3.95,0.55 8.271,0.83 11.3,2.13 1.86,0.79 3.971,3.24 5.37,4.81 4.721,5.25 9.32,10.98 12.2,17.68 2.021,4.7 2.69,10.85 2.69,17.23 0,6.5 -0.08,12.98 -0.561,19.14 -1.03,13.13 -2.64,23.18 -9.96,29.76 -3.49,3.14 -7.93,5.33 -12.31,7.61 -3.271,1.71 -6.53,3.55 -9.511,5.37 -0.909,0.56 -2.38,1.02 -2.47,2.35 3.62,0.08 6.95,-1.48 10.07,-2.68 3.17,-1.22 6.26,-2.5 9.07,-3.92 5.8,-2.92 10.329,-7.27 13.319,-12.76 3.063,-5.62 3.823,-13.51 4.583,-21.48 z m -17.79,1.79 c 2.57,-13.04 -0.14,-23.86 -4.14,-32.01 -4.2,-8.55 -9.72,-15.77 -17.12,-21.03 -7.54,-5.37 -17.44,-7.81 -31.11,-7.16 -0.069,0 -0.13,0.11 -0.109,0.11 -6.761,0.32 -12.561,0.77 -17.91,2.01 -5.26,1.22 -9.47,3.62 -14.101,5.71 -9,4.07 -18.3,7.9 -28.979,10.63 -5.17,1.32 -11.561,2.51 -17.34,1.68 -5.36,-0.77 -10.61,-2.58 -15.221,-4.59 -4.14,-1.81 -8.739,-4.16 -12.649,-7.16 -3.2,-2.46 -6.521,-7.63 -11.64,-8.17 -2.171,-0.23 -5.841,1.08 -6.15,3.8 -0.311,2.73 1.75,5.31 2.91,6.83 1.63,2.13 3.399,3.75 4.81,5.04 10.561,9.61 22.23,16.71 42.75,16 6.63,-0.23 11.87,-0.65 17.681,-1.9 10.59,-2.29 20.409,-5.81 29.43,-9.74 3.479,-1.52 6.92,-2.95 9.85,-4.81 1.061,-0.68 1.9,-1.44 3.021,-1.9 4.399,-1.82 10.91,-1.91 16.67,-1.57 4.99,0.29 10.109,1.2 14.1,2.46 8.33,2.63 13.03,8.94 17.351,15.78 4.21,6.68 8.859,14.71 6.489,24.95 -1.569,6.75 -4.39,12.23 -6.05,18.8 -0.58,2.32 -1.12,5.41 -0.55,7.28 0.4,1.34 1.81,3.18 4.14,3.24 2.4,0.07 4.16,-2.28 5.48,-4.03 4.137,-5.45 6.907,-12.72 8.387,-20.25 z m -20.14,-1.01 c 1.22,-3.9 -4.69,-5.37 -7.16,-6.26 -2.09,-0.76 -4.19,-1.7 -6.16,-2.47 -3.82,-1.48 -8.149,-2.73 -11.41,-5.82 -2.939,-2.77 -4.43,-6.78 -5.71,-11.52 -0.64,-2.38 -1.42,-4.72 -2.239,-6.38 -0.75,-1.53 -2.5,-4.85 -4.921,-4.7 -2.01,0.13 -3.26,1.82 -4.029,3.25 -0.87,1.6 -1.04,3.86 -1.9,5.25 -1.689,2.72 -5.45,5.32 -8.62,7.28 -3.42,2.12 -6.95,3.79 -10.29,5.59 -20.899,11.23 -43.66,20.28 -67.26,28.09 -16.15,5.35 -32.24,10.4 -48.45,15.11 -16.37,4.76 -32.95,9.35 -50.36,13.2 -17.35,3.84 -36.31,5.83 -56.29,7.28 -20.53,1.48 -41.67,0.81 -59.08,-3.14 -17.36,-3.93 -32.17,-10.18 -44.87,-18.68 -2.95,-1.98 -6.04,-4.49 -8.62,-7.28 -5.22,-5.65 -7.24,-13.82 -8.62,-23.16 -0.67,-4.57 -1.18,-12.06 -4.47,-14.55 -3.67,-2.78 -5.96,2.39 -6.83,6.15 -1.18,5.1 -1.6,9.92 -4.81,12.65 -1.17,0.99 -1.94,1.76 -2.69,3.13 -1.35,2.5 -2.29,5.62 -3.02,8.62 -3.23,13.24 -3.76,27.04 -4.47,41.96 -0.36,7.43 -0.23,15.23 0.11,22.61 0.34,7.64 0.58,15.04 1.45,21.82 1.75,13.56 6.28,25.08 12.31,34.13 6.37,9.55 15.04,15.57 26.86,19.58 11.26,3.83 24.77,6.221 38.49,7.95 20.57,2.59 43.36,3.24 66.47,3.24 23.05,0 45.65,-1.04 66.03,-3.69 13.59,-1.77 26.55,-4.439 38.72,-7.72 12.199,-3.29 23.91,-7.05 34.35,-12.09 10.42,-5.03 19.76,-11.03 28.87,-17.57 13.57,-9.73 26.729,-19.78 38.27,-31.33 3.86,-3.86 7.28,-8.04 10.86,-12.42 6.78,-8.29 13.58,-17.2 19.8,-26.63 2.99,-4.52 6.141,-9.38 9.4,-13.88 2.31,-3.17 4.979,-6.85 7.72,-9.73 1.42,-1.5 2.83,-2.44 3.25,-4.48 0.41,-2.02 -0.81,-3.75 -0.78,-5.71 0.03,-1.95 0.49,-3.9 1.12,-5.7 1.101,-3.15 2.86,-6.31 6.15,-7.5 3.2,-1.16 8.01,-0.67 12.65,-1.01 3.749,-0.27 9.249,-0.5 10.179,-3.47 z m -57.3,134.06 c 0.54,-0.43 2.42,-1.98 0.79,-1.9 -1.61,0.07 -4.2,1.42 -6.051,2.24 -12.56,5.57 -24.159,12.33 -35.92,18.24 -13.739,6.91 -27.97,13.6 -42.18,19.69 -14.33,6.149 -29.44,11.84 -46.22,15.67 -16.88,3.85 -33.75,7.359 -51.14,10.85 -17.06,3.44 -34.75,6.22 -53.83,8.06 -18.93,1.83 -38.89,1.98 -58.97,2.91 -10.35,0.48 -20.9,0.851 -30.21,0.221 -5.07,-0.341 -9.42,-0.92 -13.32,-2.12 -3.77,-1.16 -7.19,-3.011 -10.63,-4.931 -6.48,-3.609 -13.26,-7.529 -19.25,-11.75 -3.07,-2.159 -5.9,-4.489 -7.61,-7.83 -1.77,-3.46 -1.72,-7.939 -2.79,-12.76 -0.46,5.13 -1.2,10.351 -0.34,14.66 0.83,4.18 4.01,6.57 7.05,8.73 2.98,2.119 6.28,4.119 9.51,6.159 3.28,2.061 6.65,4.171 9.85,5.931 3.4,1.859 7.04,3.62 10.97,4.7 4.21,1.149 8.83,1.67 13.87,1.899 10.22,0.46 20.55,0.24 31.11,-0.22 10.14,-0.45 20.37,-0.58 30.55,-0.9 10.03,-0.31 20.07,-0.81 29.77,-1.68 29.37,-2.62 55.44,-7.5 81.35,-13.09 8.66,-1.87 17.34,-3.521 25.63,-5.82 16.62,-4.6 32.41,-9.86 47.11,-15.89 14.65,-6.01 29.03,-12.851 43.08,-19.92 6.81,-3.42 13.81,-6.91 20.7,-10.74 5.681,-3.149 12.071,-6.369 17.121,-10.409 z m -3.35,-201.98 c 0.96,-0.49 3.54,-1.91 3.021,-3.58 -0.271,-0.86 -3.55,-1.53 -4.811,-1.79 -6.39,-1.34 -13.06,-2.21 -19.59,-2.58 -0.12,0.03 -0.17,0.13 -0.22,0.23 0.109,-0.01 0.13,0.09 0.22,0.11 3.36,1.72 7.69,3.21 11.19,4.7 1.149,0.48 2.66,0.82 3.25,2.01 -2.5,1.79 -7.24,1.34 -9.96,2.91 5.87,1.13 12.73,0.08 16.9,-2.01 z m -10.3,-35.25 c -0.67,-2.82 -2.85,-5.04 -4.7,-7.16 -1.85,-2.14 -3.79,-4.38 -5.819,-6.27 -12.57,-11.73 -27.431,-20.95 -44.65,-27.98 -5.72,-2.33 -11.49,-4.71 -17.68,-6.49 -6.271,-1.8 -13,-2.85 -20.25,-3.91 -15.42,-2.27 -33.49,-4.03 -50.92,-3.14 -1.79,0.09 -3.52,0.19 -5.26,0.34 -10.4,0.86 -19.59,3.15 -29.32,4.59 -13.65,2.02 -27.1,3.13 -42.07,3.13 -14.57,0 -29.3,-0.94 -42.97,-2.13 -6.84,-0.59 -13.77,-1.34 -20.7,-1.9 -6.39,-0.52 -15.42,-1.23 -21.27,0.45 -3.11,0.89 -6.05,2.98 -7.94,5.03 -0.64,0.7 -1.62,1.45 -1.23,2.91 3.5,0.54 5.78,-1.86 8.28,-3.24 2.62,-1.45 5.71,-2.2 9.62,-2.35 7.6,-0.29 15.06,0.72 22.61,1.45 29,2.81 62.78,3.87 91.42,0.34 14.41,-1.78 27.62,-4.92 42.52,-5.6 16.101,-0.73 30.99,0.89 44.88,3.03 7.03,1.07 13.65,2.35 19.92,4.14 6.28,1.79 12.15,3.91 17.79,6.26 17.221,7.16 32.19,15.97 44.2,27.98 2.95,2.94 6.14,6.02 9.51,8.5 1.159,0.85 2.479,1.92 4.029,2.02 z m -5.03,46.88 c 2.931,-4.8 -4.02,-7.11 -7.84,-5.14 1.94,2.39 4.87,3.78 7.84,5.14 z m -11.87,189.12 c 0.5,-0.33 2.061,-1.44 0.79,-1.45 -1.439,-0.02 -3.54,1.15 -5.149,1.79 -10.72,4.25 -20.94,9.4 -30.771,13.98 -23.65,11.02 -46.65,21.19 -72.18,30.22 -6.35,2.239 -12.63,4.569 -19.25,6.38 -6.8,1.859 -14.06,3.01 -21.82,3.8 -15.5,1.59 -31.79,2.05 -48.23,2.91 -8.21,0.43 -16.36,0.88 -24.51,1.12 -15.82,0.47 -34.5,2 -49.23,-0.341 -14.32,-2.27 -26.75,-7.989 -36.15,-15.1 -3.62,-2.75 -6.75,-6.02 -10.52,-8.62 -1.16,-0.8 -2.53,-2.13 -4.25,-1.79 0.05,1.74 1.28,3.061 2.24,4.25 6.78,8.46 16.07,14.38 26.74,18.8 18.34,7.591 45.9,7.33 71.06,6.271 16.72,-0.7 33.58,-1.33 49.69,-2.46 8.29,-0.58 16.44,-0.931 24.28,-1.79 15.74,-1.74 28.98,-5.78 41.851,-10.3 32.439,-11.38 62.14,-24.44 90.869,-39.5 4.88,-2.56 10.1,-5.19 14.54,-8.17 z m 0.34,-231.64 c 0.439,-2.58 -1.811,-4.49 -3.24,-6.15 -1.54,-1.78 -3.23,-3.49 -4.82,-5.04 -10.08,-9.88 -21.51,-17.76 -36.14,-22.94 -9.67,-3.42 -20.22,-5.88 -32.45,-6.94 -6.01,-0.52 -12.28,-0.63 -18.8,-0.89 -6.13,-0.25 -13.9,-0.39 -19.92,-0.11 -5.101,0.23 -10.37,0.21 -14.771,1 -1.39,0.25 -2.99,0.51 -3.81,1.57 3.07,1.13 6.55,0.89 9.96,0.89 3.53,0 7.189,-0.08 10.74,-0.22 21.729,-0.87 42.899,0.5 59.43,5.6 5.78,1.78 11.06,3.61 16,5.81 4.95,2.21 9.37,5.06 13.65,8.17 4.229,3.09 8.39,6.19 12.079,9.74 2.761,2.65 5.44,5.53 8.511,7.83 0.991,0.75 2.151,1.8 3.581,1.68 z m -7.16,35.92 c 2.68,-1.86 5.33,-4.4 4.25,-8.61 -0.8,-3.12 -3.09,-6.18 -5.26,-8.51 -6.79,-7.31 -14.601,-13.1 -24.841,-16.56 -7.149,-2.42 -14.779,-3.79 -22.83,-4.81 -10.029,-1.27 -22.31,-1.57 -32.449,-0.67 -12.601,1.1 -21.33,5.32 -30.44,10.29 -7.17,3.92 -14.76,8.6 -20.59,14.21 -1.97,1.9 -4.27,4.06 -5.15,6.49 -1.02,2.86 -0.81,7.84 0.56,10.41 1,1.86 2.65,3.33 4.25,4.81 4.76,4.39 10.2,7.92 15.89,11.3 17.5,-8.57 33.37,-17.38 57.19,-19.8 11.52,-1.17 24.67,0.22 35.25,2.35 4.89,0.98 11.51,2.46 17.229,1.79 2.631,-0.31 5.011,-1.35 6.941,-2.69 z m -42.53,64.35 c 1.41,-2.86 -1.31,-3.44 -3.91,-3.92 -9.2,-1.7 -19.55,-0.88 -28.979,-1.79 -5.38,-0.52 -12.82,-0.58 -12.87,-5.93 -0.021,-1.44 2.569,-5.3 -0.79,-5.04 -2.69,0.21 -3.601,5.82 -2.46,8.62 1.85,4.53 8.08,4.93 13.77,5.59 7.74,0.91 15.86,1.24 23.61,1.8 4.109,0.29 8.029,0.75 11.629,0.67 z m -52.59,5.48 c 0,-4.45 -0.01,-8.42 -1.12,-11.3 -2.94,-7.67 -12.99,-10.78 -23.16,-10.3 -2.63,0.13 -5.13,0.27 -7.61,1.12 -1.89,0.65 -4.49,1.7 -4.59,4.03 -0.1,2.36 2.17,4.09 4.14,4.81 2.88,1.05 5.24,1.02 7.61,1.46 4.52,0.84 11.11,1.79 12.65,5.48 1.729,4.17 -0.48,8.87 -2.24,11.19 -1.84,2.42 -4.39,3.39 -5.26,6.49 -0.72,2.55 0.28,4.68 1.229,6.16 0.58,0.91 1.421,2.38 2.91,2.57 1.12,0.14 2.761,-0.64 3.91,-1.23 3.32,-1.71 7.28,-4.49 8.96,-6.83 2.281,-3.17 2.571,-7.77 2.571,-13.65 z M 301.56,157.32 c 0.841,-1.14 2.101,-2.44 1.79,-4.14 -0.39,-0.25 -0.699,-0.2 -1.01,-0.11 -2.54,0.7 -5.22,3.48 -7.05,5.48 -1.92,2.11 -3.55,4.4 -4.81,7.17 -2.72,5.94 -3.14,13.34 -2.35,20.81 1.04,-1.27 1.15,-3.05 1.45,-4.59 1.08,-5.44 2.44,-9.74 4.48,-13.87 2.08,-4.22 4.9,-7.25 7.5,-10.75 z m -6.83,145.7 c 0.48,-7.2 -3.43,-7.98 -9.85,-8.5 -3.53,-0.29 -7.5,-0.4 -11.08,-0.23 -4.58,0.22 -8.6,0.58 -12.86,1.91 -2.73,0.84 -8.5,2.88 -7.95,6.6 0.32,2.14 3.39,2.85 6.16,3.13 6.58,0.67 11.82,-0.29 18.12,0.11 2.82,0.18 6.18,0.61 7.84,1.57 1.5,0.87 1.75,3.2 4.36,3.24 2.99,0.06 5.01,-4.05 5.26,-7.83 z m -57.74,-73.07 c 0.96,-0.84 2.9,-2.42 2.8,-4.03 -0.1,-1.58 -2.49,-2.58 -3.92,-3.02 -1.89,-0.58 -4.07,-0.91 -5.93,-1.01 -4.89,-0.26 -8.57,-0.81 -11.75,-2.12 -6.68,-2.76 -11.08,-7.57 -16.79,-10.97 -5.83,-3.48 -12.11,-6.02 -20.48,-7.28 -10.76,-1.61 -26.46,-2.61 -37.37,-0.55 -6.63,1.25 -11.28,4.21 -15.44,8.16 -1.61,1.52 -4.74,4.21 -4.7,7.17 0.03,2.83 2.83,5.25 4.7,6.26 2.4,1.31 6.45,1.95 9.51,2.46 10.23,1.72 21.94,2.34 32.45,3.59 10.49,1.24 20.95,3.03 29.43,6.49 2.8,1.14 6.15,2.71 7.39,4.7 1.74,2.79 0.99,8.64 0.56,12.87 -0.43,4.19 -1.31,7.43 -3.03,9.84 -1.85,2.61 -4.98,4.4 -8.16,6.38 -9.24,5.72 -17.59,11.35 -25.41,18.46 -2.35,2.15 -4.81,5.05 -7.38,7.17 -2.6,2.13 -5.84,4.51 -9.63,5.03 -6.11,0.84 -10.85,3.94 -14.66,7.28 -1.22,1.07 -3.01,2.22 -3.02,4.14 3.03,-0.15 5.62,-1.72 8.06,-3.02 5.28,-2.82 9.72,-4.76 15.67,-6.94 2.63,-0.97 6.26,-2.61 9.17,-1.79 3.01,0.84 3.76,5.77 7.05,5.82 2.13,0.03 2.93,-2.39 4.93,-2.47 2.59,-0.09 5.12,2.37 6.93,3.92 5.97,5.09 10.73,10.77 16.57,16.11 4.11,3.77 8.08,6.22 15.89,5.71 6.8,-0.44 14.58,-2.61 16.67,-8.28 1.39,-3.78 -1.91,-7.83 -4.7,-8.06 -3.72,-0.3 -5.78,3.53 -8.84,4.26 -4.16,0.99 -8.57,-1.65 -11.08,-3.47 -5.28,-3.85 -9.29,-8.36 -12.98,-13.43 -1.79,-2.46 -4.04,-5.57 -4.36,-8.84 -0.44,-4.39 3.53,-9.72 6.49,-11.08 1.16,-0.53 2.55,-0.61 3.69,-1.12 2.97,-1.33 5.57,-3.52 7.61,-5.48 2.33,-2.25 4.31,-4.51 5.48,-7.61 1.24,-3.27 1.48,-7.2 1.57,-11.53 0.08,-4.13 -0.24,-8.61 1.01,-12.08 1.74,-4.86 7.66,-6.29 11.97,-8.84 1.35,-0.8 2.79,-1.73 4.03,-2.8 z m -18.8,235.33 c 10.29,0 20.63,0.279 29.99,-0.67 -19.16,-0.891 -40.74,-1 -59.87,0 9.33,0.9 19.63,0.67 29.88,0.67 z m 1.68,-303.26 c 0.46,-1.67 -3.64,-2.77 -4.93,-3.13 -2.75,-0.77 -4.69,-0.96 -7.05,-1.34 -9.99,-1.64 -19.8,-2.64 -30.1,-3.47 -5.19,-0.42 -10.56,-0.97 -16.11,-0.67 -5.74,0.3 -10.54,2.03 -15.22,4.25 -4.49,2.13 -8.64,4.21 -12.31,6.71 -7.89,5.38 -14.24,11.58 -13.32,24.29 1.16,-0.09 1.52,-1.35 1.9,-2.13 1.49,-2.97 2.4,-6.26 4.03,-8.95 4.29,-7.05 11.51,-11.34 19.03,-15.45 3.71,-2.02 7.98,-4.04 12.42,-4.81 5.02,-0.86 11.02,-0.38 16.34,0 13.75,0.99 26.26,2.06 38.16,4.93 1.24,0.3 6.65,1.59 7.16,-0.23 z m -7.39,41.52 c 1.76,-9.73 1.47,-23.93 -3.02,-30.21 -0.62,-0.87 -1.86,-2.1 -2.8,-2.47 -3.1,-1.22 -1.75,2.78 -1.34,3.81 0.64,1.59 1.38,2.32 1.9,3.24 3.26,5.71 4.34,13.11 4.7,21.04 0.07,1.59 -0.17,3.28 0.56,4.59 z m -61.32,65.24 c 3.03,-1.77 7.19,-4.91 7.05,-9.62 -0.22,-7.05 -8.18,-4.53 -12.54,-2.58 -3.05,1.37 -5.66,3.2 -8.84,3.36 -4.22,0.2 -7.73,-2.92 -10.4,-4.81 -2.59,-1.83 -5.59,-4.11 -8.39,-5.82 -6.03,-3.69 -12.7,-5.62 -23.06,-5.49 -0.07,0.01 -0.13,0.12 -0.11,0.12 -6.29,0.12 -12.56,0.6 -18.13,2.46 -4.96,1.66 -9.59,4.73 -11.3,9.17 -0.53,1.37 -0.62,1.92 -0.56,2.91 0.12,2.1 1.83,4.44 3.58,4.82 2.52,0.53 5.32,-0.98 7.05,-1.79 2.17,-1.03 3.96,-2.31 5.82,-3.14 3.98,-1.76 7.93,-2.45 13.09,-2.68 4.82,-0.22 10.08,0.22 13.54,2.12 2.32,1.28 3.8,3.22 5.15,5.37 1.41,2.24 1.96,5 3.69,6.94 2.49,2.8 7.69,3.21 13.21,3.02 8.3,-0.28 15.86,-1.28 21.15,-4.36 z M 116.13,218.2 c 0.2,-2.3 -3.4,-2.72 -5.7,-2.58 -2.1,0.14 -3.57,0.5 -5.49,0.79 -4.49,0.69 -9.26,0.93 -14.21,1.12 -7.18,0.27 -13.82,-0.28 -19.69,0.67 -5.81,0.94 -9.34,4.08 -13.1,7.27 -3.6,3.06 -7.29,6.53 -11.52,8.84 -0.85,0.46 -1.92,0.57 -2.69,1.12 -1.23,0.88 -2.44,3.05 -3.36,4.59 -2.89,4.86 -5.94,11.03 -6.82,17.12 -0.36,2.45 -0.11,5.21 -0.11,7.83 0,7.86 1.7,14.85 3.13,20.82 1.07,4.47 2.35,8.26 4.92,10.96 6.11,6.43 16.59,10.86 25.85,13.99 1.28,0.43 5.74,1.98 6.38,0.79 0.73,-1.37 -2.53,-2.68 -3.24,-3.03 -4.73,-2.28 -9.02,-4.15 -13.43,-6.37 -6.23,-3.14 -11.81,-5.51 -14.66,-11.75 -1.36,-2.98 -2.22,-6.44 -3.14,-10.08 -0.9,-3.59 -1.84,-7.26 -2.35,-10.85 -1.71,-12.1 2.73,-23.54 8.96,-29.77 2.16,-2.16 4.95,-3.43 7.83,-5.37 2.6,-1.75 5.13,-3.74 7.39,-5.82 2.33,-2.14 4.3,-4.74 7.05,-6.15 5.48,-2.81 16.31,-1.57 24.17,-1.57 4.53,0 8.62,-0.06 13.09,-0.11 3.08,-0.03 10.53,0.08 10.74,-2.46 z m -42.74,19.13 c 1.11,-0.76 2.57,-1.66 2.9,-3.13 -0.43,-0.48 -1.04,-0.48 -1.79,-0.45 -3.06,0.14 -6.5,1.66 -9.51,2.91 -2.58,1.08 -6.02,2.66 -7.72,4.37 -1.85,1.86 -2.71,5.5 -3.47,8.73 -1.28,5.47 -2.08,11.36 -2.57,17.23 -0.26,3.14 -0.6,6.39 -0.34,9.62 0.46,5.64 4.4,9.28 7.72,12.2 1.18,1.04 2.45,2.14 3.81,3.02 1.42,0.93 3.13,2.08 4.92,1.57 0.58,-1.16 -0.44,-2.07 -1,-2.8 -1.99,-2.54 -4.07,-4.58 -6.38,-6.71 -3.12,-2.88 -6.06,-5.65 -6.05,-11.42 0.01,-4.92 0.97,-9.35 1.68,-13.99 0.69,-4.42 1.43,-9.18 3.58,-12.19 3.12,-4.35 9.85,-5.99 14.22,-8.96 z"
         id="path11"
         inkscape:connector-curvature="0"
         style="fill:#ffffff" />
      <path
         d="m 550.77,262.4 c 0.131,9.01 0.131,16.77 -0.68,25.18 -0.76,7.97 -1.52,15.86 -4.58,21.48 -2.99,5.49 -7.52,9.84 -13.319,12.76 -2.811,1.42 -5.9,2.7 -9.07,3.92 -3.12,1.2 -6.45,2.76 -10.07,2.68 0.09,-1.33 1.561,-1.79 2.47,-2.35 2.98,-1.82 6.24,-3.66 9.511,-5.37 4.38,-2.28 8.819,-4.47 12.31,-7.61 7.32,-6.58 8.93,-16.63 9.96,-29.76 0.48,-6.16 0.561,-12.64 0.561,-19.14 0,-6.38 -0.67,-12.53 -2.69,-17.23 -2.88,-6.7 -7.479,-12.43 -12.2,-17.68 -1.399,-1.57 -3.51,-4.02 -5.37,-4.81 -3.029,-1.3 -7.35,-1.58 -11.3,-2.13 -10.76,-1.51 -22.479,-1.95 -33.68,-3.25 -0.86,-0.1 -1.91,-0.06 -2.58,-0.67 11.479,-0.6 25.08,-0.77 36.26,0.34 4.101,0.4 7.96,0.81 10.97,2.12 3.011,1.32 5.23,3.27 7.61,5.38 4.73,4.19 8.57,8.9 11.63,14.43 1.58,2.85 2.811,5.93 3.471,9.51 0.656,3.59 0.716,7.77 0.786,12.2 z"
         id="path13"
         inkscape:connector-curvature="0" />
      <path
         d="m 528.16,257.36 c 4,8.15 6.71,18.97 4.14,32.01 -1.479,7.53 -4.25,14.8 -8.39,20.25 -1.32,1.75 -3.08,4.1 -5.48,4.03 -2.33,-0.06 -3.739,-1.9 -4.14,-3.24 -0.57,-1.87 -0.03,-4.96 0.55,-7.28 1.66,-6.57 4.48,-12.05 6.05,-18.8 2.37,-10.24 -2.279,-18.27 -6.489,-24.95 -4.32,-6.84 -9.021,-13.15 -17.351,-15.78 -3.99,-1.26 -9.109,-2.17 -14.1,-2.46 -5.76,-0.34 -12.271,-0.25 -16.67,1.57 -1.12,0.46 -1.96,1.22 -3.021,1.9 -2.93,1.86 -6.37,3.29 -9.85,4.81 -9.021,3.93 -18.84,7.45 -29.43,9.74 -5.811,1.25 -11.051,1.67 -17.681,1.9 -20.52,0.71 -32.189,-6.39 -42.75,-16 -1.41,-1.29 -3.18,-2.91 -4.81,-5.04 -1.16,-1.52 -3.221,-4.1 -2.91,-6.83 0.31,-2.72 3.979,-4.03 6.15,-3.8 5.119,0.54 8.439,5.71 11.64,8.17 3.91,3 8.51,5.35 12.649,7.16 4.61,2.01 9.86,3.82 15.221,4.59 5.779,0.83 12.17,-0.36 17.34,-1.68 10.68,-2.73 19.979,-6.56 28.979,-10.63 4.631,-2.09 8.841,-4.49 14.101,-5.71 5.35,-1.24 11.149,-1.69 17.91,-2.01 -0.021,0 0.04,-0.11 0.109,-0.11 13.67,-0.65 23.57,1.79 31.11,7.16 7.403,5.26 12.923,12.48 17.123,21.03 z"
         id="path15"
         inkscape:connector-curvature="0" />
      <path
         d="m 505,282.1 c 2.47,0.89 8.38,2.36 7.16,6.26 -0.93,2.97 -6.43,3.2 -10.18,3.47 -4.641,0.34 -9.45,-0.15 -12.65,1.01 -3.29,1.19 -5.05,4.35 -6.15,7.5 -0.63,1.8 -1.09,3.75 -1.12,5.7 -0.029,1.96 1.19,3.69 0.78,5.71 -0.42,2.04 -1.83,2.98 -3.25,4.48 -2.74,2.88 -5.41,6.56 -7.72,9.73 -3.26,4.5 -6.41,9.36 -9.4,13.88 -6.22,9.43 -13.02,18.34 -19.8,26.63 -3.58,4.38 -7,8.56 -10.86,12.42 -11.54,11.55 -24.699,21.6 -38.27,31.33 -9.11,6.54 -18.45,12.54 -28.87,17.57 -10.439,5.04 -22.15,8.8 -34.35,12.09 -12.17,3.28 -25.13,5.95 -38.72,7.72 -20.38,2.65 -42.98,3.69 -66.03,3.69 -23.11,0 -45.9,-0.65 -66.47,-3.24 -13.72,-1.729 -27.23,-4.12 -38.49,-7.95 -11.82,-4.01 -20.49,-10.029 -26.86,-19.58 -6.03,-9.05 -10.56,-20.57 -12.31,-34.13 -0.87,-6.78 -1.11,-14.18 -1.45,-21.82 -0.34,-7.38 -0.47,-15.18 -0.11,-22.61 0.71,-14.92 1.24,-28.72 4.47,-41.96 0.73,-3 1.67,-6.12 3.02,-8.62 0.75,-1.37 1.52,-2.14 2.69,-3.13 3.21,-2.73 3.63,-7.55 4.81,-12.65 0.87,-3.76 3.16,-8.93 6.83,-6.15 3.29,2.49 3.8,9.98 4.47,14.55 1.38,9.34 3.4,17.51 8.62,23.16 2.58,2.79 5.67,5.3 8.62,7.28 12.7,8.5 27.51,14.75 44.87,18.68 17.41,3.95 38.55,4.62 59.08,3.14 19.98,-1.45 38.94,-3.44 56.29,-7.28 17.41,-3.85 33.99,-8.44 50.36,-13.2 16.21,-4.71 32.3,-9.76 48.45,-15.11 23.6,-7.81 46.36,-16.86 67.26,-28.09 3.34,-1.8 6.87,-3.47 10.29,-5.59 3.17,-1.96 6.931,-4.56 8.62,-7.28 0.86,-1.39 1.03,-3.65 1.9,-5.25 0.77,-1.43 2.02,-3.12 4.029,-3.25 2.421,-0.15 4.171,3.17 4.921,4.7 0.819,1.66 1.6,4 2.239,6.38 1.28,4.74 2.771,8.75 5.71,11.52 3.261,3.09 7.59,4.34 11.41,5.82 1.971,0.77 4.071,1.71 6.161,2.47 z m -32.12,7.94 c 1.14,-3.88 3.14,-12.55 -3.13,-11.3 -4.71,0.93 -9.23,3.14 -13.32,5.15 -8.34,4.1 -16.27,7.96 -24.62,12.42 -3.859,2.06 -8.609,4.71 -10.63,7.94 -1.71,2.74 -2.16,7.2 -2.46,11.64 -0.31,4.55 -0.51,9.39 0.891,12.87 6.67,-2 12.34,-5.14 18.359,-7.95 5.8,-2.71 11.7,-5.63 17.34,-8.95 5.48,-3.23 10.49,-6.62 13.771,-12.53 1.459,-2.65 2.749,-5.72 3.799,-9.29 z m -21.04,42.41 c 0.53,-0.84 1.311,-1.73 1.23,-2.8 -0.03,0 -0.07,0 -0.11,0 -5.49,1.67 -10.83,4.33 -16.78,7.05 -5.1,2.34 -11.37,5.11 -14.77,8.62 -2,2.06 -3.24,5.22 -3.92,8.84 -0.67,3.58 -1.271,7.78 -0.11,11.53 0.57,1.85 2.521,4.46 4.92,4.14 1.46,-0.2 3.58,-2.93 4.7,-4.14 1.55,-1.69 2.91,-3.31 4.14,-4.81 7.45,-9.12 14.49,-18.46 20.7,-28.43 z m -45.65,52.71 c 1.739,-1.44 4.77,-3.52 4.699,-6.04 -0.069,-2.2 -2.1,-3.5 -2.909,-4.82 -1.94,-3.13 -3.2,-7.17 -3.471,-12.19 -0.13,-2.33 0.49,-5.74 -1.01,-6.83 -0.62,-0.45 -1.95,-0.3 -2.46,-0.22 -0.07,0.01 -0.15,-0.02 -0.23,0 -4.76,0.99 -8.43,3.18 -12.529,5.03 -4.181,1.89 -8.351,3.72 -12.311,5.37 -6.25,2.62 -12.46,5.34 -19.359,7.05 -2.551,0.64 -4.931,1.29 -6.49,2.35 -1.811,1.25 -3.561,3.11 -3.69,6.61 -0.13,3.34 1.03,6.87 1.9,9.84 1.77,6.03 4.24,11.59 6.939,16.68 1.171,2.19 2.891,6.07 5.48,6.38 2.61,0.3 5.5,-2.09 7.39,-3.25 6.931,-4.26 12.95,-8.29 19.36,-12.64 6.251,-4.26 12.741,-8.43 18.691,-13.32 z m 1.12,-69.83 c 0.521,-3.21 -0.5,-6.91 -2.47,-6.94 -1.479,-0.02 -3.38,0.59 -4.92,1.01 -10.71,2.92 -20.229,6.32 -30.77,9.51 -8.61,2.61 -18.141,4.89 -26.641,7.95 -2.6,0.93 -6.29,2.52 -6.93,4.58 -0.59,1.9 0.27,4.53 0.67,6.38 0.9,4.19 1.74,8.3 2.91,12.2 0.43,1.44 1.21,4.7 2.57,5.04 0.939,0.23 3.869,-1.13 5.369,-1.68 1.91,-0.71 3.7,-1.41 5.261,-2.02 9.8,-3.77 18.899,-8.31 29.77,-10.52 1.03,-0.21 2.15,-0.2 3.24,-0.44 2.49,-0.57 5.37,-2.95 7.39,-4.7 4.19,-3.64 7.811,-7.81 10.851,-12.42 1.6,-2.42 3.2,-4.95 3.7,-7.95 z m -62.56,104.41 c 0.48,-1.76 -0.32,-3.96 -0.78,-5.26 -2.87,-8.09 -7.76,-13.13 -9.29,-22.38 -0.21,-1.25 -0.449,-3.19 -0.449,-5.82 0,-4.04 -0.25,-6.03 -3.351,-5.71 -2.67,0.28 -4.729,1.25 -6.939,2.01 -11.061,3.84 -21.351,7.52 -33.351,10.64 -4.17,1.08 -10.15,1.75 -12.76,4.81 -1.75,2.06 -2.07,6.44 -2.01,10.29 0.05,3.38 0.16,6.5 0.33,10.07 0.28,5.78 -0.08,15.07 3.7,17.24 2.1,1.2 6.1,0.69 9.06,0.33 9.46,-1.14 17.87,-3.01 25.96,-4.92 8.09,-1.91 16.34,-4.17 23.84,-7.05 2.19,-0.84 5.45,-2.05 6.04,-4.25 z m -17.46,-62.67 c 0.33,-1.63 -0.67,-4.16 -1.12,-5.93 -0.55,-2.21 -1.07,-4.24 -1.45,-5.93 -0.96,-4.25 -1.47,-7.97 -4.25,-10.52 -2.39,0.27 -4.989,0.86 -7.609,1.34 -2.351,0.43 -4.75,0.93 -6.94,1.35 -9.46,1.8 -18.42,3.33 -27.53,5.59 -4.21,1.05 -9.41,2.2 -11.64,4.92 -1.78,2.18 -1.9,5.9 -2.23,10.08 -0.27,3.25 -1.02,7.79 0.44,9.96 1.06,1.56 4.46,1.77 7.73,1.9 9.58,0.38 18.91,-1.47 26.07,-2.8 8.101,-1.5 16.09,-3.13 23.05,-5.82 2.239,-0.86 5.059,-2.04 5.479,-4.14 z m -62.77,72.96 c 0.5,-7.07 -0.03,-14.14 -0.67,-21.15 -0.3,-3.21 -0.75,-7.83 -2.58,-8.5 -0.63,-0.23 -1.56,0 -1.57,0 -1.74,0.26 -3.25,0.89 -4.92,1.23 -8.42,1.71 -17.46,2.32 -26.86,3.13 -3.52,0.31 -7.92,0.68 -9.17,2.8 -1.03,1.75 -0.48,6.29 -0.11,8.39 0.9,5.25 1.94,9.72 3.02,14.89 0.51,2.43 0.78,5.199 2.12,6.819 1.85,2.23 5.98,2.29 9.96,2.46 7.14,0.32 13.39,-0.04 19.47,-0.439 2.62,-0.18 6.68,-0.05 8.73,-1.24 2.03,-1.16 2.33,-4.9 2.58,-8.39 z m -13.77,-62.55 c 1.64,-1.82 1.46,-5.88 1.46,-9.51 0,-3.69 0.14,-8.06 -1.46,-9.63 -1.21,-1.2 -3.82,-1.37 -6.71,-1.23 -10,0.47 -19.55,2.26 -29.1,3.47 -1,2.56 -1.58,5.14 -2.23,8.17 -0.51,2.36 -1.93,6.7 -0.68,8.84 1.08,1.84 5.49,2.01 8.62,2.13 3.37,0.12 7.14,0.11 10.74,0.11 6.02,0 16.62,0.7 19.36,-2.35 z m -42.07,71.5 c 1.45,-1.65 0.47,-5.591 0.11,-7.83 -0.96,-5.87 -1.88,-9.94 -3.36,-14.771 -0.69,-2.26 -1.22,-5.06 -2.8,-6.38 -2.42,-2.02 -10.08,-1.75 -13.87,-1.57 -3.53,0.17 -12.17,0.05 -13.09,2.69 -0.82,2.33 1.11,5.67 2.01,7.72 2.16,4.93 4.07,8.97 6.71,13.32 1.26,2.06 2.65,4.62 4.37,5.71 2.27,1.42 6.08,1.75 9.62,2.01 2.94,0.221 8.73,0.881 10.3,-0.899 z m -8.73,-77.54 c 0.28,-2.52 0.79,-6.3 -0.11,-8.06 -1.18,-2.29 -4.13,-2.93 -7.39,-3.58 -6.63,-1.33 -12.15,-1.99 -18.58,-2.8 -3.21,-0.41 -6.91,-1.01 -10.07,-0.67 -4.84,0.52 -5.38,4.1 -6.71,8.5 -0.4,1.33 -0.96,2.87 -1.34,4.37 -0.4,1.55 -0.9,3.72 -0.34,5.03 0.97,2.28 6.26,2.79 8.95,3.25 7.73,1.3 14.16,1.61 22.61,2.01 3.85,0.18 9.13,0.24 10.96,-1.34 1.42,-1.23 1.71,-3.99 2.02,-6.71 z m -30.66,74.3 c 0.44,-1.04 -0.34,-2.71 -0.79,-3.92 -2.36,-6.41 -3.78,-12.53 -6.6,-18.24 -0.95,-1.91 -2.58,-5.19 -4.25,-5.7 -1.17,-0.37 -2.66,-0.23 -3.92,-0.45 -1.22,-0.22 -2.49,-0.41 -3.69,-0.67 -2.16,-0.49 -5.41,-2.05 -7.16,-1.57 -1.33,0.36 -0.79,1.73 -0.23,3.13 2.25,5.57 4.77,9.21 6.94,14.89 0.79,2.07 1.97,4.9 1.9,6.93 -0.02,0.86 -0.58,1.42 -0.44,2.13 0.19,1 2.42,1.95 3.58,2.351 1.62,0.56 3.19,0.82 4.81,1.12 1.95,0.359 8.94,2.149 9.85,-10e-4 z M 144.56,349.8 c 0.43,-1.69 1.32,-3.86 1.11,-5.6 -0.41,-3.52 -5.21,-5.57 -7.94,-6.94 -1.64,-0.82 -3.1,-1.41 -4.7,-2.12 -1.62,-0.73 -3.26,-1.6 -5.26,-1.68 -1.83,-0.07 -3.06,3.79 -3.47,5.93 -1.31,6.92 -0.07,17.07 2.8,21.6 2.79,4.4 8.33,4.03 14.1,5.48 1.87,-2.96 1.42,-7.07 2.13,-11.19 0.3,-1.78 0.75,-3.66 1.23,-5.48 z m -6.72,80.79 c 0.14,-1.55 -0.66,-2.979 -1.23,-4.359 -2.76,-6.65 -6.04,-13.48 -9.85,-19.25 -1.4,-2.12 -3.36,-5.3 -5.48,-6.27 -2.8,-1.28 -3.25,0.54 -2.57,3.25 0.94,3.78 2.41,6.89 2.68,10.96 0.2,2.89 -0.22,4.62 -1.9,5.38 -1.33,0.59 -4.75,-0.24 -6.6,1.12 0.44,2.12 2.74,3.21 4.59,4.14 4.09,2.051 8.55,3.04 13.2,4.25 2.32,0.599 4.86,1.689 7.16,0.779 z M 112.78,330.21 c 0,-2.49 0.11,-8.75 -1.91,-8.28 -0.15,0.04 -0.24,0.03 -0.33,0.11 -3.83,3.77 -6.5,12.98 -8.4,19.14 -0.68,2.22 -1.73,4.98 -1.56,7.72 0.16,2.62 1.83,3.72 3.58,5.04 1.09,0.81 2.78,2.63 4.48,2.24 1.53,-0.37 2.23,-4.89 2.57,-7.39 0.88,-6.47 1.57,-11.47 1.57,-18.58 z m -5.82,88.52 c 1.24,-0.15 0.99,-2.82 0.78,-3.92 -0.87,-4.46 -2.55,-7.97 -4.25,-11.41 -2.38,-4.81 -4.74,-9.22 -7.84,-12.98 -0.07,0 -0.15,0 -0.22,0 -0.01,-0.07 -0.02,-0.13 -0.11,-0.11 0,0.15 -0.05,0.24 -0.11,0.33 0.39,2.74 1.28,5.34 2.23,7.72 2.33,5.8 4.91,11.73 7.39,17.46 0.43,0.99 1.16,3.02 2.13,2.91 z M 99.35,312.2 c 0.3,-0.95 0.86,-2.42 0,-3.25 -2.25,0.77 -5.68,7.42 -4.93,10.41 1.81,-0.5 2.87,-2.62 3.7,-4.36 0.37,-0.79 0.91,-1.82 1.23,-2.8 z"
         id="path17"
         inkscape:connector-curvature="0" />
      <path
         d="m 469.75,278.74 c 6.27,-1.25 4.27,7.42 3.13,11.3 -1.05,3.57 -2.34,6.64 -3.8,9.29 -3.28,5.91 -8.29,9.3 -13.771,12.53 -5.64,3.32 -11.54,6.24 -17.34,8.95 -6.02,2.81 -11.689,5.95 -18.359,7.95 -1.4,-3.48 -1.2,-8.32 -0.891,-12.87 0.3,-4.44 0.75,-8.9 2.46,-11.64 2.021,-3.23 6.771,-5.88 10.63,-7.94 8.351,-4.46 16.28,-8.32 24.62,-12.42 4.091,-2.01 8.611,-4.22 13.321,-5.15 z"
         id="path19"
         inkscape:connector-curvature="0"
         style="fill:#ffffff" />
      <path
         d="m 455.65,420.52 c 1.63,-0.08 -0.25,1.47 -0.79,1.9 -5.051,4.04 -11.44,7.26 -17.12,10.41 -6.891,3.83 -13.891,7.32 -20.7,10.74 -14.05,7.069 -28.43,13.91 -43.08,19.92 -14.7,6.029 -30.49,11.29 -47.11,15.89 -8.29,2.3 -16.97,3.95 -25.63,5.82 -25.91,5.59 -51.979,10.47 -81.35,13.09 -9.7,0.87 -19.74,1.37 -29.77,1.68 -10.18,0.32 -20.41,0.45 -30.55,0.9 -10.56,0.46 -20.89,0.68 -31.11,0.22 -5.04,-0.229 -9.66,-0.75 -13.87,-1.899 -3.93,-1.08 -7.57,-2.841 -10.97,-4.7 -3.2,-1.76 -6.57,-3.87 -9.85,-5.931 -3.23,-2.04 -6.53,-4.04 -9.51,-6.159 -3.04,-2.16 -6.22,-4.551 -7.05,-8.73 -0.86,-4.31 -0.12,-9.53 0.34,-14.66 1.07,4.82 1.02,9.3 2.79,12.76 1.71,3.341 4.54,5.671 7.61,7.83 5.99,4.221 12.77,8.141 19.25,11.75 3.44,1.92 6.86,3.771 10.63,4.931 3.9,1.2 8.25,1.779 13.32,2.12 9.31,0.63 19.86,0.26 30.21,-0.221 20.08,-0.93 40.04,-1.08 58.97,-2.91 19.08,-1.84 36.77,-4.619 53.83,-8.06 17.39,-3.49 34.26,-7 51.14,-10.85 16.779,-3.83 31.89,-9.521 46.22,-15.67 14.21,-6.091 28.44,-12.78 42.18,-19.69 11.761,-5.91 23.36,-12.67 35.92,-18.24 1.85,-0.821 4.44,-2.171 6.05,-2.241 z"
         id="path21"
         inkscape:connector-curvature="0" />
      <path
         d="m 454.53,216.86 c 0.52,1.67 -2.061,3.09 -3.021,3.58 -4.17,2.09 -11.029,3.14 -16.899,2.01 2.72,-1.57 7.46,-1.12 9.96,-2.91 -0.59,-1.19 -2.101,-1.53 -3.25,-2.01 -3.5,-1.49 -7.83,-2.98 -11.19,-4.7 -0.09,-0.02 -0.11,-0.12 -0.22,-0.11 0.05,-0.1 0.1,-0.2 0.22,-0.23 6.53,0.37 13.2,1.24 19.59,2.58 1.26,0.26 4.54,0.93 4.81,1.79 z"
         id="path23"
         inkscape:connector-curvature="0" />
      <path
         d="m 453.07,329.65 c 0.08,1.07 -0.7,1.96 -1.23,2.8 -6.21,9.97 -13.25,19.31 -20.7,28.43 -1.229,1.5 -2.59,3.12 -4.14,4.81 -1.12,1.21 -3.24,3.94 -4.7,4.14 -2.399,0.32 -4.35,-2.29 -4.92,-4.14 -1.16,-3.75 -0.56,-7.95 0.11,-11.53 0.68,-3.62 1.92,-6.78 3.92,-8.84 3.399,-3.51 9.67,-6.28 14.77,-8.62 5.95,-2.72 11.29,-5.38 16.78,-7.05 0.04,0 0.08,0 0.11,0 z"
         id="path25"
         inkscape:connector-curvature="0"
         style="fill:#ffffff" />
      <path
         d="m 436.51,178.03 c 1.851,2.12 4.03,4.34 4.7,7.16 -1.55,-0.1 -2.87,-1.17 -4.03,-2.02 -3.37,-2.48 -6.56,-5.56 -9.51,-8.5 -12.01,-12.01 -26.979,-20.82 -44.2,-27.98 -5.64,-2.35 -11.51,-4.47 -17.79,-6.26 -6.27,-1.79 -12.89,-3.07 -19.92,-4.14 -13.89,-2.14 -28.779,-3.76 -44.88,-3.03 -14.9,0.68 -28.11,3.82 -42.52,5.6 -28.64,3.53 -62.42,2.47 -91.42,-0.34 -7.55,-0.73 -15.01,-1.74 -22.61,-1.45 -3.91,0.15 -7,0.9 -9.62,2.35 -2.5,1.38 -4.78,3.78 -8.28,3.24 -0.39,-1.46 0.59,-2.21 1.23,-2.91 1.89,-2.05 4.83,-4.14 7.94,-5.03 5.85,-1.68 14.88,-0.97 21.27,-0.45 6.93,0.56 13.86,1.31 20.7,1.9 13.67,1.19 28.4,2.13 42.97,2.13 14.97,0 28.42,-1.11 42.07,-3.13 9.73,-1.44 18.92,-3.73 29.32,-4.59 1.74,-0.15 3.47,-0.25 5.26,-0.34 17.43,-0.89 35.5,0.87 50.92,3.14 7.25,1.06 13.979,2.11 20.25,3.91 6.189,1.78 11.96,4.16 17.68,6.49 17.22,7.03 32.08,16.25 44.65,27.98 2.03,1.89 3.97,4.13 5.82,6.27 z"
         id="path27"
         inkscape:connector-curvature="0" />
      <path
         d="m 428.34,226.93 c 3.82,-1.97 10.771,0.34 7.84,5.14 -2.97,-1.36 -5.9,-2.75 -7.84,-5.14 z"
         id="path29"
         inkscape:connector-curvature="0" />
      <path
         d="m 425.1,419.74 c 1.271,0.01 -0.29,1.12 -0.79,1.45 -4.439,2.98 -9.659,5.61 -14.54,8.17 -28.729,15.06 -58.43,28.12 -90.869,39.5 -12.87,4.52 -26.11,8.56 -41.851,10.3 -7.84,0.859 -15.99,1.21 -24.28,1.79 -16.11,1.13 -32.97,1.76 -49.69,2.46 -25.16,1.06 -52.72,1.32 -71.06,-6.271 -10.67,-4.42 -19.96,-10.34 -26.74,-18.8 -0.96,-1.189 -2.19,-2.51 -2.24,-4.25 1.72,-0.34 3.09,0.99 4.25,1.79 3.77,2.601 6.9,5.87 10.52,8.62 9.4,7.11 21.83,12.83 36.15,15.1 14.73,2.341 33.41,0.811 49.23,0.341 8.15,-0.24 16.3,-0.69 24.51,-1.12 16.44,-0.86 32.73,-1.32 48.23,-2.91 7.76,-0.79 15.02,-1.94 21.82,-3.8 6.62,-1.811 12.9,-4.141 19.25,-6.38 25.53,-9.03 48.53,-19.2 72.18,-30.221 9.83,-4.58 20.051,-9.729 30.771,-13.98 1.609,-0.639 3.709,-1.809 5.149,-1.789 z"
         id="path31"
         inkscape:connector-curvature="0" />
      <path
         d="m 421.41,183.4 c 1.43,1.66 3.68,3.57 3.24,6.15 -1.431,0.12 -2.591,-0.93 -3.58,-1.68 -3.07,-2.3 -5.75,-5.18 -8.511,-7.83 -3.689,-3.55 -7.85,-6.65 -12.079,-9.74 -4.28,-3.11 -8.7,-5.96 -13.65,-8.17 -4.94,-2.2 -10.22,-4.03 -16,-5.81 -16.53,-5.1 -37.7,-6.47 -59.43,-5.6 -3.551,0.14 -7.21,0.22 -10.74,0.22 -3.41,0 -6.89,0.24 -9.96,-0.89 0.82,-1.06 2.42,-1.32 3.81,-1.57 4.4,-0.79 9.67,-0.77 14.771,-1 6.02,-0.28 13.79,-0.14 19.92,0.11 6.52,0.26 12.79,0.37 18.8,0.89 12.23,1.06 22.78,3.52 32.45,6.94 14.63,5.18 26.06,13.06 36.14,22.94 1.589,1.55 3.279,3.26 4.819,5.04 z"
         id="path33"
         inkscape:connector-curvature="0" />
      <path
         d="m 421.74,216.86 c 1.08,4.21 -1.57,6.75 -4.25,8.61 -1.931,1.34 -4.311,2.38 -6.94,2.69 -5.72,0.67 -12.34,-0.81 -17.229,-1.79 -10.58,-2.13 -23.73,-3.52 -35.25,-2.35 -23.82,2.42 -39.69,11.23 -57.19,19.8 -5.69,-3.38 -11.13,-6.91 -15.89,-11.3 -1.6,-1.48 -3.25,-2.95 -4.25,-4.81 -1.37,-2.57 -1.58,-7.55 -0.56,-10.41 0.88,-2.43 3.18,-4.59 5.15,-6.49 5.83,-5.61 13.42,-10.29 20.59,-14.21 9.11,-4.97 17.84,-9.19 30.44,-10.29 10.14,-0.9 22.42,-0.6 32.449,0.67 8.051,1.02 15.681,2.39 22.83,4.81 10.24,3.46 18.051,9.25 24.841,16.56 2.169,2.33 4.459,5.39 5.259,8.51 z m -27.86,-4.03 c 3.92,2.23 8.65,3.17 13.311,4.25 -2.15,-4.6 -7.011,-8.98 -13.65,-8.28 -1.23,0.13 -2.58,0.22 -2.68,1.23 -0.141,1.3 1.979,2.21 3.019,2.8 z m -51.7,0.22 c 0.431,-1.02 -0.13,-2.45 -0.449,-3.47 -0.711,-2.26 -1.301,-4.16 -1.57,-6.71 -0.141,-1.39 0.02,-2.97 -0.561,-3.58 -0.569,-0.62 -1.96,-0.53 -2.79,-0.45 -2.31,0.21 -4.67,0.82 -6.829,1.45 -12.601,3.72 -23.381,9.15 -31.891,17.13 -1.39,1.3 -3.13,3.06 -2.91,5.25 0.22,2.29 2.87,4.43 5.26,4.7 1.97,0.23 4.079,-0.48 5.819,-1.11 5.23,-1.91 10.05,-4.27 14.54,-6.49 4.391,-2.18 9.38,-4.67 15.891,-5.15 2.08,-0.16 4.89,-0.16 5.49,-1.57 z"
         id="path35"
         inkscape:connector-curvature="0" />
      <path
         d="m 410.89,379.12 c 0.07,2.52 -2.96,4.6 -4.699,6.04 -5.95,4.89 -12.44,9.06 -18.69,13.32 -6.41,4.35 -12.43,8.38 -19.36,12.64 -1.89,1.16 -4.779,3.55 -7.39,3.25 -2.59,-0.31 -4.31,-4.19 -5.48,-6.38 -2.699,-5.09 -5.17,-10.65 -6.939,-16.68 -0.87,-2.97 -2.03,-6.5 -1.9,-9.84 0.13,-3.5 1.88,-5.36 3.69,-6.61 1.56,-1.06 3.939,-1.71 6.49,-2.35 6.899,-1.71 13.109,-4.43 19.359,-7.05 3.96,-1.65 8.13,-3.48 12.311,-5.37 4.1,-1.85 7.77,-4.04 12.529,-5.03 0.08,-0.02 0.16,0.01 0.23,0 0.51,-0.08 1.84,-0.23 2.46,0.22 1.5,1.09 0.88,4.5 1.01,6.83 0.271,5.02 1.53,9.06 3.471,12.19 0.808,1.32 2.838,2.62 2.908,4.82 z"
         id="path37"
         inkscape:connector-curvature="0"
         style="fill:#ffffff" />
      <path
         d="m 404.84,308.39 c 1.97,0.03 2.99,3.73 2.47,6.94 -0.5,3 -2.1,5.53 -3.699,7.95 -3.04,4.61 -6.66,8.78 -10.851,12.42 -2.02,1.75 -4.899,4.13 -7.39,4.7 -1.09,0.24 -2.21,0.23 -3.24,0.44 -10.87,2.21 -19.97,6.75 -29.77,10.52 -1.561,0.61 -3.351,1.31 -5.261,2.02 -1.5,0.55 -4.43,1.91 -5.369,1.68 -1.36,-0.34 -2.141,-3.6 -2.57,-5.04 -1.17,-3.9 -2.01,-8.01 -2.91,-12.2 -0.4,-1.85 -1.26,-4.48 -0.67,-6.38 0.64,-2.06 4.33,-3.65 6.93,-4.58 8.5,-3.06 18.03,-5.34 26.641,-7.95 10.54,-3.19 20.06,-6.59 30.77,-9.51 1.539,-0.42 3.439,-1.03 4.919,-1.01 z"
         id="path39"
         inkscape:connector-curvature="0"
         style="fill:#ffffff" />
      <path
         d="m 407.19,217.08 c -4.66,-1.08 -9.391,-2.02 -13.311,-4.25 -1.04,-0.59 -3.16,-1.5 -3.02,-2.8 0.1,-1.01 1.449,-1.1 2.68,-1.23 6.641,-0.7 11.501,3.68 13.651,8.28 z"
         id="path41"
         inkscape:connector-curvature="0"
         style="fill:#ffffff" />
      <path
         d="m 371.05,285.9 c 2.601,0.48 5.32,1.06 3.91,3.92 -3.6,0.08 -7.52,-0.38 -11.63,-0.67 -7.75,-0.56 -15.87,-0.89 -23.61,-1.8 -5.689,-0.66 -11.92,-1.06 -13.77,-5.59 -1.141,-2.8 -0.23,-8.41 2.46,-8.62 3.359,-0.26 0.77,3.6 0.79,5.04 0.05,5.35 7.49,5.41 12.87,5.93 9.43,0.91 19.78,0.09 28.98,1.79 z"
         id="path43"
         inkscape:connector-curvature="0" />
      <path
         d="m 343.97,414.48 c 0.46,1.3 1.261,3.5 0.78,5.26 -0.59,2.2 -3.85,3.41 -6.04,4.25 -7.5,2.88 -15.75,5.14 -23.84,7.05 -8.09,1.91 -16.5,3.78 -25.96,4.92 -2.96,0.36 -6.96,0.87 -9.06,-0.33 -3.78,-2.17 -3.42,-11.46 -3.7,-17.24 -0.17,-3.57 -0.28,-6.69 -0.33,-10.07 -0.06,-3.85 0.26,-8.23 2.01,-10.29 2.61,-3.06 8.59,-3.73 12.76,-4.81 12,-3.12 22.29,-6.8 33.351,-10.64 2.21,-0.76 4.27,-1.73 6.939,-2.01 3.101,-0.32 3.351,1.67 3.351,5.71 0,2.63 0.239,4.57 0.449,5.82 1.53,9.25 6.42,14.29 9.29,22.38 z"
         id="path45"
         inkscape:connector-curvature="0"
         style="fill:#ffffff" />
      <path
         d="m 341.73,209.58 c 0.319,1.02 0.88,2.45 0.449,3.47 -0.6,1.41 -3.41,1.41 -5.489,1.57 -6.511,0.48 -11.5,2.97 -15.891,5.15 -4.49,2.22 -9.31,4.58 -14.54,6.49 -1.74,0.63 -3.85,1.34 -5.819,1.11 -2.391,-0.27 -5.041,-2.41 -5.26,-4.7 -0.22,-2.19 1.52,-3.95 2.91,-5.25 8.51,-7.98 19.29,-13.41 31.891,-17.13 2.159,-0.63 4.52,-1.24 6.829,-1.45 0.83,-0.08 2.221,-0.17 2.79,0.45 0.58,0.61 0.42,2.19 0.561,3.58 0.269,2.55 0.859,4.45 1.569,6.71 z"
         id="path47"
         inkscape:connector-curvature="0"
         style="fill:#ffffff" />
      <path
         d="m 326.17,351.14 c 0.45,1.77 1.45,4.3 1.12,5.93 -0.42,2.1 -3.24,3.28 -5.48,4.14 -6.96,2.69 -14.949,4.32 -23.05,5.82 -7.16,1.33 -16.49,3.18 -26.07,2.8 -3.27,-0.13 -6.67,-0.34 -7.73,-1.9 -1.46,-2.17 -0.71,-6.71 -0.44,-9.96 0.33,-4.18 0.45,-7.9 2.23,-10.08 2.23,-2.72 7.43,-3.87 11.64,-4.92 9.11,-2.26 18.07,-3.79 27.53,-5.59 2.19,-0.42 4.59,-0.92 6.94,-1.35 2.62,-0.48 5.22,-1.07 7.609,-1.34 2.78,2.55 3.29,6.27 4.25,10.52 0.381,1.69 0.901,3.72 1.451,5.93 z"
         id="path49"
         inkscape:connector-curvature="0"
         style="fill:#ffffff" />
      <path
         d="m 17.88,96 c 103.1,0 206.19,0 309.3,0 -38.41,0.84 -77.2,0.42 -113.02,4.03 -17.55,1.77 -34.9,4.38 -51.36,7.16 -16.72,2.82 -32.3,6.59 -46.11,12.42 -13.62,5.75 -26.06,13.28 -36.93,21.6 -5.57,4.26 -10.81,8.98 -14.88,14.43 -2.2,2.95 -4.14,5.87 -5.15,9.52 -1.04,3.77 -0.66,8.44 -1.34,13.2 -1.24,8.75 -3.58,15.64 -8.17,21.15 -2.2,2.64 -4.7,5.05 -7.5,7.16 -2.72,2.06 -5.61,3.88 -8.16,6.38 -9.87,9.66 -17.32,21.47 -16.57,41.85 0.02,0.13 -0.02,0.2 -0.11,0.23 0,-53.04 0,-106.09 0,-159.13 z"
         id="path51"
         inkscape:connector-curvature="0"
         style="fill:#ffffff" />
      <path
         d="m 321.25,284 c 1.11,2.88 1.12,6.85 1.12,11.3 0,5.88 -0.29,10.48 -2.57,13.65 -1.68,2.34 -5.64,5.12 -8.96,6.83 -1.149,0.59 -2.79,1.37 -3.91,1.23 -1.489,-0.19 -2.33,-1.66 -2.91,-2.57 -0.949,-1.48 -1.949,-3.61 -1.229,-6.16 0.87,-3.1 3.42,-4.07 5.26,-6.49 1.76,-2.32 3.97,-7.02 2.24,-11.19 -1.54,-3.69 -8.13,-4.64 -12.65,-5.48 -2.37,-0.44 -4.73,-0.41 -7.61,-1.46 -1.97,-0.72 -4.24,-2.45 -4.14,-4.81 0.1,-2.33 2.7,-3.38 4.59,-4.03 2.48,-0.85 4.98,-0.99 7.61,-1.12 10.169,-0.48 20.219,2.63 23.159,10.3 z"
         id="path53"
         inkscape:connector-curvature="0" />
      <path
         d="m 303.35,153.18 c 0.311,1.7 -0.949,3 -1.79,4.14 -2.6,3.5 -5.419,6.53 -7.5,10.75 -2.04,4.13 -3.4,8.43 -4.48,13.87 -0.3,1.54 -0.41,3.32 -1.45,4.59 -0.79,-7.47 -0.37,-14.87 2.35,-20.81 1.26,-2.77 2.89,-5.06 4.81,-7.17 1.83,-2 4.51,-4.78 7.05,-5.48 0.31,-0.09 0.62,-0.14 1.01,0.11 z"
         id="path55"
         inkscape:connector-curvature="0" />
      <path
         d="m 284.88,294.52 c 6.42,0.52 10.33,1.3 9.85,8.5 -0.25,3.78 -2.27,7.89 -5.26,7.83 -2.61,-0.04 -2.86,-2.37 -4.36,-3.24 -1.66,-0.96 -5.02,-1.39 -7.84,-1.57 -6.3,-0.4 -11.54,0.56 -18.12,-0.11 -2.77,-0.28 -5.84,-0.99 -6.16,-3.13 -0.55,-3.72 5.22,-5.76 7.95,-6.6 4.26,-1.33 8.28,-1.69 12.86,-1.91 3.58,-0.17 7.55,-0.06 11.08,0.23 z"
         id="path57"
         inkscape:connector-curvature="0" />
      <path
         d="m 263.85,408.88 c 0.64,7.01 1.17,14.08 0.67,21.15 -0.25,3.489 -0.55,7.229 -2.58,8.39 -2.05,1.19 -6.11,1.061 -8.73,1.24 -6.08,0.399 -12.33,0.76 -19.47,0.439 -3.98,-0.17 -8.11,-0.229 -9.96,-2.46 -1.34,-1.62 -1.61,-4.39 -2.12,-6.819 -1.08,-5.17 -2.12,-9.64 -3.02,-14.89 -0.37,-2.1 -0.92,-6.64 0.11,-8.39 1.25,-2.12 5.65,-2.49 9.17,-2.8 9.4,-0.81 18.44,-1.42 26.86,-3.13 1.67,-0.34 3.18,-0.97 4.92,-1.23 0.01,0 0.94,-0.23 1.57,0 1.83,0.67 2.28,5.29 2.58,8.5 z"
         id="path59"
         inkscape:connector-curvature="0"
         style="fill:#ffffff" />
      <path
         d="m 252.21,357.97 c 0,3.63 0.18,7.69 -1.46,9.51 -2.74,3.05 -13.34,2.35 -19.36,2.35 -3.6,0 -7.37,0.01 -10.74,-0.11 -3.13,-0.12 -7.54,-0.29 -8.62,-2.13 -1.25,-2.14 0.17,-6.48 0.68,-8.84 0.65,-3.03 1.23,-5.61 2.23,-8.17 9.55,-1.21 19.1,-3 29.1,-3.47 2.89,-0.14 5.5,0.03 6.71,1.23 1.6,1.57 1.46,5.94 1.46,9.63 z"
         id="path61"
         inkscape:connector-curvature="0"
         style="fill:#ffffff" />
      <path
         d="m 239.79,225.92 c 0.1,1.61 -1.84,3.19 -2.8,4.03 -1.24,1.07 -2.68,2 -4.03,2.8 -4.31,2.55 -10.23,3.98 -11.97,8.84 -1.25,3.47 -0.93,7.95 -1.01,12.08 -0.09,4.33 -0.33,8.26 -1.57,11.53 -1.17,3.1 -3.15,5.36 -5.48,7.61 -2.04,1.96 -4.64,4.15 -7.61,5.48 -1.14,0.51 -2.53,0.59 -3.69,1.12 -2.96,1.36 -6.93,6.69 -6.49,11.08 0.32,3.27 2.57,6.38 4.36,8.84 3.69,5.07 7.7,9.58 12.98,13.43 2.51,1.82 6.92,4.46 11.08,3.47 3.06,-0.73 5.12,-4.56 8.84,-4.26 2.79,0.23 6.09,4.28 4.7,8.06 -2.09,5.67 -9.87,7.84 -16.67,8.28 -7.81,0.51 -11.78,-1.94 -15.89,-5.71 -5.84,-5.34 -10.6,-11.02 -16.57,-16.11 -1.81,-1.55 -4.34,-4.01 -6.93,-3.92 -2,0.08 -2.8,2.5 -4.93,2.47 -3.29,-0.05 -4.04,-4.98 -7.05,-5.82 -2.91,-0.82 -6.54,0.82 -9.17,1.79 -5.95,2.18 -10.39,4.12 -15.67,6.94 -2.44,1.3 -5.03,2.87 -8.06,3.02 0.01,-1.92 1.8,-3.07 3.02,-4.14 3.81,-3.34 8.55,-6.44 14.66,-7.28 3.79,-0.52 7.03,-2.9 9.63,-5.03 2.57,-2.12 5.03,-5.02 7.38,-7.17 7.82,-7.11 16.17,-12.74 25.41,-18.46 3.18,-1.98 6.31,-3.77 8.16,-6.38 1.72,-2.41 2.6,-5.65 3.03,-9.84 0.43,-4.23 1.18,-10.08 -0.56,-12.87 -1.24,-1.99 -4.59,-3.56 -7.39,-4.7 -8.48,-3.46 -18.94,-5.25 -29.43,-6.49 -10.51,-1.25 -22.22,-1.87 -32.45,-3.59 -3.06,-0.51 -7.11,-1.15 -9.51,-2.46 -1.87,-1.01 -4.67,-3.43 -4.7,-6.26 -0.04,-2.96 3.09,-5.65 4.7,-7.17 4.16,-3.95 8.81,-6.91 15.44,-8.16 10.91,-2.06 26.61,-1.06 37.37,0.55 8.37,1.26 14.65,3.8 20.48,7.28 5.71,3.4 10.11,8.21 16.79,10.97 3.18,1.31 6.86,1.86 11.75,2.12 1.86,0.1 4.04,0.43 5.93,1.01 1.43,0.44 3.82,1.44 3.92,3.02 z m -79.9,-12.31 c 2.37,-0.1 4.77,0.19 6.6,-0.67 -2.66,-0.94 -6.48,-1.06 -10.07,-0.9 -2.89,0.14 -5.95,-0.03 -7.95,1.12 3.31,0.57 7.56,0.62 11.42,0.45 z"
         id="path63"
         inkscape:connector-curvature="0" />
      <path
         d="m 248.18,464.61 c -9.36,0.949 -19.7,0.67 -29.99,0.67 -10.25,0 -20.55,0.229 -29.88,-0.67 19.13,-1 40.71,-0.89 59.87,0 z"
         id="path65"
         inkscape:connector-curvature="0" />
      <path
         d="m 214.94,158.89 c 1.29,0.36 5.39,1.46 4.93,3.13 -0.51,1.82 -5.92,0.53 -7.16,0.23 -11.9,-2.87 -24.41,-3.94 -38.16,-4.93 -5.32,-0.38 -11.32,-0.86 -16.34,0 -4.44,0.77 -8.71,2.79 -12.42,4.81 -7.52,4.11 -14.74,8.4 -19.03,15.45 -1.63,2.69 -2.54,5.98 -4.03,8.95 -0.38,0.78 -0.74,2.04 -1.9,2.13 -0.92,-12.71 5.43,-18.91 13.32,-24.29 3.67,-2.5 7.82,-4.58 12.31,-6.71 4.68,-2.22 9.48,-3.95 15.22,-4.25 5.55,-0.3 10.92,0.25 16.11,0.67 10.3,0.83 20.11,1.83 30.1,3.47 2.36,0.38 4.3,0.57 7.05,1.34 z"
         id="path67"
         inkscape:connector-curvature="0" />
      <path
         d="m 209.46,173.33 c 4.49,6.28 4.78,20.48 3.02,30.21 -0.73,-1.31 -0.49,-3 -0.56,-4.59 -0.36,-7.93 -1.44,-15.33 -4.7,-21.04 -0.52,-0.92 -1.26,-1.65 -1.9,-3.24 -0.41,-1.03 -1.76,-5.03 1.34,-3.81 0.94,0.37 2.18,1.6 2.8,2.47 z"
         id="path69"
         inkscape:connector-curvature="0" />
      <path
         d="m 208.79,431.15 c 0.36,2.239 1.34,6.18 -0.11,7.83 -1.57,1.779 -7.36,1.119 -10.3,0.899 -3.54,-0.26 -7.35,-0.59 -9.62,-2.01 -1.72,-1.09 -3.11,-3.65 -4.37,-5.71 -2.64,-4.351 -4.55,-8.391 -6.71,-13.32 -0.9,-2.05 -2.83,-5.39 -2.01,-7.72 0.92,-2.64 9.56,-2.52 13.09,-2.69 3.79,-0.18 11.45,-0.45 13.87,1.57 1.58,1.32 2.11,4.12 2.8,6.38 1.48,4.831 2.4,8.901 3.36,14.771 z"
         id="path71"
         inkscape:connector-curvature="0"
         style="fill:#ffffff" />
      <path
         d="m 199.84,353.38 c 0.9,1.76 0.39,5.54 0.11,8.06 -0.31,2.72 -0.6,5.48 -2.02,6.71 -1.83,1.58 -7.11,1.52 -10.96,1.34 -8.45,-0.4 -14.88,-0.71 -22.61,-2.01 -2.69,-0.46 -7.98,-0.97 -8.95,-3.25 -0.56,-1.31 -0.06,-3.48 0.34,-5.03 0.38,-1.5 0.94,-3.04 1.34,-4.37 1.33,-4.4 1.87,-7.98 6.71,-8.5 3.16,-0.34 6.86,0.26 10.07,0.67 6.43,0.81 11.95,1.47 18.58,2.8 3.26,0.65 6.21,1.29 7.39,3.58 z"
         id="path73"
         inkscape:connector-curvature="0"
         style="fill:#ffffff" />
      <path
         d="m 168.5,431.82 c 0.45,1.21 1.23,2.88 0.79,3.92 -0.91,2.149 -7.9,0.359 -9.85,0 -1.62,-0.3 -3.19,-0.561 -4.81,-1.12 -1.16,-0.4 -3.39,-1.351 -3.58,-2.351 -0.14,-0.71 0.42,-1.27 0.44,-2.13 0.07,-2.029 -1.11,-4.859 -1.9,-6.93 -2.17,-5.68 -4.69,-9.32 -6.94,-14.89 -0.56,-1.4 -1.1,-2.77 0.23,-3.13 1.75,-0.48 5,1.08 7.16,1.57 1.2,0.26 2.47,0.45 3.69,0.67 1.26,0.22 2.75,0.08 3.92,0.45 1.67,0.51 3.3,3.79 4.25,5.7 2.82,5.711 4.24,11.831 6.6,18.241 z"
         id="path75"
         inkscape:connector-curvature="0"
         style="fill:#ffffff" />
      <path
         d="m 166.49,212.94 c -1.83,0.86 -4.23,0.57 -6.6,0.67 -3.86,0.17 -8.11,0.12 -11.42,-0.45 2,-1.15 5.06,-0.98 7.95,-1.12 3.59,-0.16 7.41,-0.04 10.07,0.9 z"
         id="path77"
         inkscape:connector-curvature="0"
         style="fill:#ffffff" />
      <path
         d="m 158.21,259.16 c 0.14,4.71 -4.02,7.85 -7.05,9.62 -5.29,3.08 -12.85,4.08 -21.15,4.36 -5.52,0.19 -10.72,-0.22 -13.21,-3.02 -1.73,-1.94 -2.28,-4.7 -3.69,-6.94 -1.35,-2.15 -2.83,-4.09 -5.15,-5.37 -3.46,-1.9 -8.72,-2.34 -13.54,-2.12 -5.16,0.23 -9.11,0.92 -13.09,2.68 -1.86,0.83 -3.65,2.11 -5.82,3.14 -1.73,0.81 -4.53,2.32 -7.05,1.79 -1.75,-0.38 -3.46,-2.72 -3.58,-4.82 -0.06,-0.99 0.03,-1.54 0.56,-2.91 1.71,-4.44 6.34,-7.51 11.3,-9.17 5.57,-1.86 11.84,-2.34 18.13,-2.46 -0.02,0 0.04,-0.11 0.11,-0.12 10.36,-0.13 17.03,1.8 23.06,5.49 2.8,1.71 5.8,3.99 8.39,5.82 2.67,1.89 6.18,5.01 10.4,4.81 3.18,-0.16 5.79,-1.99 8.84,-3.36 4.36,-1.95 12.32,-4.47 12.54,2.58 z"
         id="path79"
         inkscape:connector-curvature="0" />
      <path
         d="m 145.67,344.2 c 0.21,1.74 -0.68,3.91 -1.11,5.6 -0.48,1.82 -0.93,3.7 -1.23,5.48 -0.71,4.12 -0.26,8.23 -2.13,11.19 -5.77,-1.45 -11.31,-1.08 -14.1,-5.48 -2.87,-4.53 -4.11,-14.68 -2.8,-21.6 0.41,-2.14 1.64,-6 3.47,-5.93 2,0.08 3.64,0.95 5.26,1.68 1.6,0.71 3.06,1.3 4.7,2.12 2.73,1.37 7.53,3.42 7.94,6.94 z"
         id="path81"
         inkscape:connector-curvature="0"
         style="fill:#ffffff" />
      <path
         d="m 136.61,426.23 c 0.57,1.38 1.37,2.81 1.23,4.359 -2.3,0.91 -4.84,-0.18 -7.16,-0.78 -4.65,-1.21 -9.11,-2.199 -13.2,-4.25 -1.85,-0.93 -4.15,-2.02 -4.59,-4.14 1.85,-1.36 5.27,-0.53 6.6,-1.12 1.68,-0.76 2.1,-2.49 1.9,-5.38 -0.27,-4.07 -1.74,-7.18 -2.68,-10.96 -0.68,-2.71 -0.23,-4.53 2.57,-3.25 2.12,0.97 4.08,4.15 5.48,6.27 3.81,5.771 7.09,12.601 9.85,19.251 z"
         id="path83"
         inkscape:connector-curvature="0"
         style="fill:#ffffff" />
      <path
         d="m 110.43,215.62 c 2.3,-0.14 5.9,0.28 5.7,2.58 -0.21,2.54 -7.66,2.43 -10.74,2.46 -4.47,0.05 -8.56,0.11 -13.09,0.11 -7.86,0 -18.69,-1.24 -24.17,1.57 -2.75,1.41 -4.72,4.01 -7.05,6.15 -2.26,2.08 -4.79,4.07 -7.39,5.82 -2.88,1.94 -5.67,3.21 -7.83,5.37 -6.23,6.23 -10.67,17.67 -8.96,29.77 0.51,3.59 1.45,7.26 2.35,10.85 0.92,3.64 1.78,7.1 3.14,10.08 2.85,6.24 8.43,8.61 14.66,11.75 4.41,2.22 8.7,4.09 13.43,6.37 0.71,0.35 3.97,1.66 3.24,3.03 -0.64,1.19 -5.1,-0.36 -6.38,-0.79 -9.26,-3.13 -19.74,-7.56 -25.85,-13.99 -2.57,-2.7 -3.85,-6.49 -4.92,-10.96 -1.43,-5.97 -3.13,-12.96 -3.13,-20.82 0,-2.62 -0.25,-5.38 0.11,-7.83 0.88,-6.09 3.93,-12.26 6.82,-17.12 0.92,-1.54 2.13,-3.71 3.36,-4.59 0.77,-0.55 1.84,-0.66 2.69,-1.12 4.23,-2.31 7.92,-5.78 11.52,-8.84 3.76,-3.19 7.29,-6.33 13.1,-7.27 5.87,-0.95 12.51,-0.4 19.69,-0.67 4.95,-0.19 9.72,-0.43 14.21,-1.12 1.92,-0.29 3.39,-0.65 5.49,-0.79 z"
         id="path85"
         inkscape:connector-curvature="0" />
      <path
         d="m 110.87,321.93 c 2.02,-0.47 1.91,5.79 1.91,8.28 0,7.11 -0.69,12.11 -1.57,18.58 -0.34,2.5 -1.04,7.02 -2.57,7.39 -1.7,0.39 -3.39,-1.43 -4.48,-2.24 -1.75,-1.32 -3.42,-2.42 -3.58,-5.04 -0.17,-2.74 0.88,-5.5 1.56,-7.72 1.9,-6.16 4.57,-15.37 8.4,-19.14 0.09,-0.08 0.18,-0.07 0.33,-0.11 z"
         id="path87"
         inkscape:connector-curvature="0"
         style="fill:#ffffff" />
      <path
         d="m 107.74,414.81 c 0.21,1.1 0.46,3.77 -0.78,3.92 -0.97,0.11 -1.7,-1.92 -2.13,-2.91 -2.48,-5.73 -5.06,-11.66 -7.39,-17.46 -0.95,-2.38 -1.84,-4.98 -2.23,-7.72 0.06,-0.09 0.11,-0.18 0.11,-0.33 0.09,-0.02 0.1,0.04 0.11,0.11 0.07,0 0.15,0 0.22,0 3.1,3.76 5.46,8.17 7.84,12.98 1.7,3.44 3.38,6.95 4.25,11.41 z"
         id="path89"
         inkscape:connector-curvature="0"
         style="fill:#ffffff" />
      <path
         d="m 99.35,308.95 c 0.86,0.83 0.3,2.3 0,3.25 -0.32,0.98 -0.86,2.01 -1.23,2.8 -0.83,1.74 -1.89,3.86 -3.7,4.36 -0.75,-2.99 2.68,-9.64 4.93,-10.41 z"
         id="path91"
         inkscape:connector-curvature="0"
         style="fill:#ffffff" />
      <path
         d="m 76.29,234.2 c -0.33,1.47 -1.79,2.37 -2.9,3.13 -4.37,2.97 -11.1,4.61 -14.22,8.96 -2.15,3.01 -2.89,7.77 -3.58,12.19 -0.71,4.64 -1.67,9.07 -1.68,13.99 -0.01,5.77 2.93,8.54 6.05,11.42 2.31,2.13 4.39,4.17 6.38,6.71 0.56,0.73 1.58,1.64 1,2.8 -1.79,0.51 -3.5,-0.64 -4.92,-1.57 -1.36,-0.88 -2.63,-1.98 -3.81,-3.02 -3.32,-2.92 -7.26,-6.56 -7.72,-12.2 -0.26,-3.23 0.08,-6.48 0.34,-9.62 0.49,-5.87 1.29,-11.76 2.57,-17.23 0.76,-3.23 1.62,-6.87 3.47,-8.73 1.7,-1.71 5.14,-3.29 7.72,-4.37 3.01,-1.25 6.45,-2.77 9.51,-2.91 0.75,-0.03 1.36,-0.03 1.79,0.45 z"
         id="path93"
         inkscape:connector-curvature="0" />
      <path
         d="m 17.88,272.14 c 0,0.96 0,1.91 0,2.87 -0.02,-0.93 -0.02,-1.89 0,-2.87 z"
         id="path95"
         inkscape:connector-curvature="0" />
    </g>
  </g>
</svg>
